<svg xmlns="http://www.w3.org/2000/svg" width="1600" height="520" viewBox="0 0 1600 520">
  <defs>
    <linearGradient id="bg" x1="0" x2="1" y1="0" y2="1">
      <stop offset="0" stop-color="#111827"/>
      <stop offset="1" stop-color="#1f2937"/>
    </linearGradient>
    <linearGradient id="accent" x1="0" x2="1" y1="0" y2="0">
      <stop offset="0" stop-color="#c62828" stop-opacity="0.95"/>
      <stop offset="1" stop-color="#8e1b1b" stop-opacity="0.95"/>
    </linearGradient>
    <filter id="soft" x="-20%" y="-20%" width="140%" height="140%">
      <feGaussianBlur stdDeviation="14"/>
    </filter>
  </defs>

  <rect width="1600" height="520" fill="url(#bg)"/>

  <circle cx="260" cy="110" r="140" fill="url(#accent)" opacity="0.40" filter="url(#soft)"/>
  <circle cx="1380" cy="420" r="170" fill="url(#accent)" opacity="0.28" filter="url(#soft)"/>

  <g opacity="0.9">
    <rect x="920" y="70" width="610" height="170" rx="22" fill="#0b1220" stroke="rgba(255,255,255,0.10)"/>
    <rect x="920" y="260" width="290" height="190" rx="22" fill="#0b1220" stroke="rgba(255,255,255,0.10)"/>
    <rect x="1240" y="260" width="290" height="190" rx="22" fill="#0b1220" stroke="rgba(255,255,255,0.10)"/>

    <g fill="rgba(255,255,255,0.12)">
      <rect x="950" y="100" width="250" height="18" rx="9"/>
      <rect x="950" y="130" width="520" height="14" rx="7"/>
      <rect x="950" y="156" width="480" height="14" rx="7"/>
      <rect x="950" y="182" width="360" height="14" rx="7"/>
    </g>

    <g fill="rgba(255,255,255,0.12)">
      <rect x="950" y="296" width="220" height="18" rx="9"/>
      <rect x="950" y="328" width="250" height="12" rx="6"/>
      <rect x="950" y="352" width="210" height="12" rx="6"/>
      <rect x="950" y="376" width="240" height="12" rx="6"/>
    </g>

    <g fill="rgba(255,255,255,0.12)">
      <rect x="1270" y="296" width="220" height="18" rx="9"/>
      <rect x="1270" y="328" width="250" height="12" rx="6"/>
      <rect x="1270" y="352" width="210" height="12" rx="6"/>
      <rect x="1270" y="376" width="240" height="12" rx="6"/>
    </g>
  </g>

  <rect x="60" y="70" width="780" height="380" rx="28" fill="rgba(255,255,255,0.06)" stroke="rgba(255,255,255,0.14)"/>
  <g fill="rgba(255,255,255,0.12)">
    <rect x="100" y="120" width="520" height="22" rx="11"/>
    <rect x="100" y="160" width="700" height="16" rx="8"/>
    <rect x="100" y="190" width="630" height="16" rx="8"/>
    <rect x="100" y="250" width="360" height="48" rx="14"/>
    <rect x="480" y="250" width="360" height="48" rx="14"/>
    <rect x="100" y="320" width="740" height="56" rx="16"/>
  </g>

  <text x="100" y="115" font-family="Arial, Helvetica, sans-serif" font-size="14" fill="rgba(255,255,255,0.70)">Replace this SVG with your workforce photos</text>
</svg>

