<?xml version="1.0" standalone="no"?>
<!DOCTYPE svg PUBLIC "-//W3C//DTD SVG 20010904//EN"
 "http://www.w3.org/TR/2001/REC-SVG-20010904/DTD/svg10.dtd">
<svg version="1.0" xmlns="http://www.w3.org/2000/svg"
 width="623.000000pt" height="400.000000pt" viewBox="0 0 623.000000 400.000000"
 preserveAspectRatio="xMidYMid meet">

<g transform="translate(0.000000,400.000000) scale(0.100000,-0.100000)"
fill="#000000" stroke="none">
<path d="M3230 3494 c-184 -33 -392 -158 -649 -389 -90 -81 -267 -298 -219
-269 7 5 9 2 6 -8 -4 -8 -2 -21 2 -28 7 -11 11 -10 25 3 21 22 26 21 17 -1
-15 -36 -40 -64 -53 -57 -8 5 -10 4 -5 -3 4 -7 -18 -50 -48 -97 -41 -62 -60
-83 -72 -78 -11 4 -12 9 -5 16 8 8 5 14 -10 23 -36 19 -75 -30 -155 -196 -87
-179 -135 -367 -141 -555 -8 -223 38 -373 148 -490 136 -144 321 -171 511 -75
98 50 268 179 268 204 0 20 -147 537 -202 711 -24 73 -32 155 -19 174 5 8 31
17 58 20 43 5 48 9 51 34 l3 27 -235 0 c-224 0 -236 -1 -236 -19 0 -19 29 -35
86 -46 18 -3 39 -14 49 -25 14 -15 81 -225 231 -720 15 -47 35 -112 45 -144
30 -93 27 -107 -29 -138 -26 -14 -80 -36 -121 -48 -186 -57 -347 14 -436 189
-24 49 -55 204 -55 281 1 258 133 602 346 893 212 291 468 522 712 644 102 51
121 57 192 61 72 4 83 2 124 -22 77 -45 113 -128 122 -286 3 -52 1 -131 -4
-175 -6 -44 -9 -81 -8 -82 7 -8 48 138 43 152 -4 9 -3 14 2 11 4 -3 13 32 20
78 27 195 -34 349 -165 411 -32 15 -150 27 -194 19z m-1075 -2124 c10 -11 16
-20 13 -20 -3 0 -13 9 -23 20 -10 11 -16 20 -13 20 3 0 13 -9 23 -20z m160
-75 c33 -9 41 -14 24 -14 -30 -1 -89 17 -104 32 -7 7 -3 7 10 2 11 -4 43 -13
70 -20z m192 -1 c-3 -3 -12 -4 -19 -1 -8 3 -5 6 6 6 11 1 17 -2 13 -5z m-49
-11 c-10 -2 -26 -2 -35 0 -10 3 -2 5 17 5 19 0 27 -2 18 -5z"/>
<path d="M3082 2730 c-38 -23 -71 -88 -72 -138 0 -52 28 -100 75 -127 78 -46
170 -26 216 47 29 48 23 146 -11 184 -52 55 -147 71 -208 34z"/>
<path d="M3497 2583 c-88 -136 -136 -189 -192 -214 -54 -25 -152 -24 -240 1
-76 22 -210 82 -238 107 -31 29 -28 6 6 -38 117 -154 197 -369 197 -531 0 -72
-33 -238 -61 -311 -52 -134 -123 -245 -225 -356 -66 -72 -67 -73 -29 -53 111
57 236 190 367 392 71 108 93 147 188 325 70 134 219 505 276 690 14 44 27 86
29 93 3 6 3 12 2 12 -2 0 -37 -53 -80 -117z"/>
<path d="M2226 2648 c3 -4 -2 -8 -11 -8 -9 0 -13 -4 -10 -10 3 -5 13 -10 22
-10 9 0 13 3 10 7 -4 3 -2 11 3 18 7 8 5 12 -5 12 -8 0 -12 -4 -9 -9z"/>
<path d="M3815 2460 l-210 -5 0 -25 c0 -23 5 -26 53 -31 64 -8 92 -31 92 -74
0 -31 -39 -180 -84 -325 -13 -41 -31 -97 -39 -125 -47 -157 -101 -315 -106
-315 -9 0 -45 72 -42 84 1 4 -4 15 -11 23 -7 9 -13 21 -13 27 -1 6 -4 18 -7
26 -3 8 -15 47 -27 85 -12 39 -29 87 -39 109 l-17 39 -36 -59 c-68 -111 -68
-87 -3 -283 31 -97 71 -219 88 -271 l31 -95 38 -3 c43 -4 39 -13 98 183 40
128 172 546 189 595 4 14 23 72 40 130 67 217 81 238 173 254 37 7 52 22 45
48 -2 10 -45 12 -213 8z"/>
<path d="M538 866 c-11 -8 -18 -26 -18 -45 0 -31 17 -45 83 -65 9 -3 17 -13
17 -22 0 -14 -7 -16 -50 -10 -45 6 -50 5 -50 -12 0 -21 25 -32 76 -32 40 0 76
34 72 68 -3 25 -10 31 -78 62 -8 4 -15 13 -15 21 0 10 11 13 43 11 37 -3 42
-1 42 17 0 19 -6 21 -52 21 -29 0 -61 -7 -70 -14z"/>
<path d="M692 783 c3 -93 4 -98 26 -101 22 -3 22 -1 22 97 l0 101 -25 0 -26 0
3 -97z"/>
<path d="M787 862 c-10 -10 -17 -31 -17 -45 0 -27 20 -42 83 -61 28 -9 14 -31
-19 -30 -16 0 -36 2 -44 5 -9 2 -16 -4 -18 -18 -3 -18 3 -23 32 -29 66 -12
116 15 116 61 0 26 -27 49 -72 59 -29 7 -38 33 -15 42 8 3 25 0 39 -5 21 -8
28 -7 32 5 10 26 -3 34 -53 34 -34 0 -53 -5 -64 -18z"/>
<path d="M1036 854 c-21 -21 -26 -36 -26 -74 0 -42 4 -52 31 -74 33 -28 73
-33 114 -14 20 9 25 18 25 50 0 31 -4 38 -19 38 -14 0 -21 -8 -23 -27 -7 -59
-78 -29 -78 32 0 44 21 59 69 51 43 -7 60 6 41 29 -8 9 -31 15 -60 15 -38 0
-53 -5 -74 -26z"/>
<path d="M1210 780 l0 -101 67 3 c55 2 68 6 71 21 3 14 -4 17 -42 17 l-46 0 0
80 c0 79 0 80 -25 80 l-25 0 0 -100z"/>
<path d="M1399 867 c-48 -37 -53 -115 -10 -158 52 -51 131 -32 161 40 15 36 8
68 -21 104 -17 23 -28 27 -67 27 -26 0 -54 -6 -63 -13z m102 -54 c19 -50 -12
-100 -55 -89 -45 11 -53 101 -11 116 30 10 56 0 66 -27z"/>
<path d="M1580 780 l0 -100 63 0 c81 0 112 19 102 64 -4 17 -6 49 -6 70 1 57
-11 66 -90 66 l-69 0 0 -100z m118 55 c13 -13 -11 -35 -38 -35 -26 0 -30 4
-30 26 0 24 3 26 32 20 17 -3 34 -8 36 -11z m-8 -75 c29 -16 13 -40 -26 -40
-30 0 -34 3 -34 25 0 27 25 34 60 15z"/>
<path d="M1796 788 c-20 -52 -36 -97 -36 -101 0 -16 39 -6 45 12 10 34 90 34
100 0 7 -21 45 -27 45 -6 0 7 -15 51 -33 98 -28 73 -36 84 -59 87 -24 3 -28
-3 -62 -90z m84 -20 c0 -9 -34 -11 -43 -2 -3 3 -1 17 6 31 l11 24 13 -23 c7
-13 12 -26 13 -30z"/>
<path d="M1979 805 c-1 -41 -2 -85 -2 -97 -1 -21 3 -23 66 -26 62 -3 67 -1 67
18 0 17 -6 20 -45 20 l-45 0 0 80 c0 73 -2 80 -20 80 -18 0 -20 -7 -21 -75z"/>
<path d="M2190 878 c0 -2 13 -46 29 -98 22 -75 33 -96 48 -98 15 -2 24 7 36
40 10 24 17 51 17 61 0 27 19 20 26 -10 16 -76 25 -93 49 -93 15 0 25 8 29 23
22 71 46 171 42 175 -15 14 -36 -14 -51 -64 -19 -64 -27 -61 -46 18 -9 41 -15
48 -35 48 -19 0 -25 -8 -34 -42 -6 -24 -15 -52 -19 -63 -10 -23 -11 -21 -32
58 -11 38 -17 47 -36 47 -13 0 -23 -1 -23 -2z"/>
<path d="M2523 865 c-27 -19 -46 -75 -37 -109 9 -36 59 -76 95 -76 87 0 129
111 67 177 -26 27 -91 32 -125 8z m103 -46 c11 -18 7 -69 -7 -85 -33 -40 -99
14 -85 70 11 43 68 53 92 15z"/>
<path d="M2710 780 c0 -92 2 -100 19 -100 14 0 21 8 23 27 4 39 32 41 54 4 12
-20 26 -31 41 -31 l23 0 -19 34 c-18 30 -18 35 -3 49 21 22 20 72 -3 97 -14
16 -31 20 -77 20 l-58 0 0 -100z m105 30 c0 -21 -5 -25 -30 -25 -25 0 -30 4
-33 28 -3 27 -1 28 30 25 28 -2 33 -7 33 -28z"/>
<path d="M2900 779 c0 -90 2 -100 18 -97 10 2 18 14 20 30 6 49 26 52 57 8 19
-28 35 -40 51 -40 24 0 24 1 -13 56 -26 39 -34 60 -27 69 5 7 19 27 32 44 l23
31 -22 0 c-19 0 -78 -54 -79 -72 0 -5 -4 -8 -10 -8 -5 0 -10 18 -10 40 0 33
-3 40 -20 40 -19 0 -20 -7 -20 -101z"/>
<path d="M3090 780 c0 -92 1 -100 19 -100 16 0 20 8 23 38 3 35 5 37 41 40 23
2 37 8 37 17 0 9 -14 15 -37 17 -31 2 -39 7 -41 26 -3 20 1 22 42 22 39 0 46
3 46 20 0 18 -7 20 -65 20 l-65 0 0 -100z"/>
<path d="M3277 860 c-70 -55 -27 -180 62 -180 37 0 88 41 96 79 8 36 -16 95
-43 110 -33 17 -87 13 -115 -9z m101 -32 c17 -17 15 -74 -4 -92 -49 -50 -120
34 -74 88 15 19 61 21 78 4z"/>
<path d="M3470 779 c0 -90 2 -100 18 -97 10 2 18 14 20 31 5 38 37 36 57 -3 9
-18 23 -30 35 -30 24 0 25 4 4 35 -14 22 -14 26 0 47 22 31 20 74 -4 98 -15
15 -33 20 -75 20 l-55 0 0 -101z m105 51 c14 -22 -6 -50 -36 -50 -26 0 -29 3
-29 30 0 27 3 30 29 30 17 0 33 -5 36 -10z"/>
<path d="M3671 853 c-29 -36 -35 -66 -22 -105 19 -58 100 -87 145 -53 16 12
17 17 6 29 -9 12 -17 13 -32 5 -30 -16 -67 -3 -74 26 -15 61 22 104 72 85 19
-8 30 -8 38 0 17 18 -22 40 -70 40 -34 0 -47 -5 -63 -27z"/>
<path d="M3840 780 l0 -100 70 0 c63 0 70 2 70 19 0 17 -8 20 -47 23 -40 3
-48 6 -48 23 0 14 7 20 23 21 48 3 52 4 52 18 0 10 -13 16 -37 18 -26 2 -39 8
-41 20 -3 14 6 17 45 20 36 2 49 7 51 21 3 15 -5 17 -67 17 l-71 0 0 -100z"/>
<path d="M4092 868 c-6 -6 -12 -27 -12 -45 0 -34 16 -46 83 -67 37 -12 11 -31
-37 -29 -35 2 -46 -1 -46 -12 0 -36 95 -49 123 -17 38 42 13 90 -55 106 -16 4
-28 13 -28 21 0 19 32 27 64 15 25 -9 27 -8 24 12 -3 20 -10 23 -53 26 -30 2
-55 -2 -63 -10z"/>
<path d="M4273 860 c-12 -10 -24 -33 -28 -50 -21 -96 89 -170 159 -105 21 20
26 33 26 75 0 41 -5 56 -25 75 -31 32 -101 35 -132 5z m113 -57 c9 -34 -14
-77 -43 -81 -32 -5 -55 25 -51 67 5 65 79 76 94 14z"/>
<path d="M4462 783 l3 -98 68 -3 c62 -3 67 -1 67 18 0 17 -6 20 -45 20 l-45 0
0 80 c0 79 0 80 -25 80 l-26 0 3 -97z"/>
<path d="M4610 833 c0 -102 32 -153 95 -153 55 0 75 33 75 123 0 70 -2 77 -20
77 -18 0 -20 -7 -20 -54 0 -70 -14 -106 -39 -106 -29 0 -41 30 -41 99 0 58 -1
61 -25 61 -23 0 -25 -3 -25 -47z"/>
<path d="M4800 860 c0 -15 7 -20 25 -20 23 0 24 -3 27 -77 3 -72 5 -78 26 -81
21 -3 22 -1 22 77 l0 81 30 0 c23 0 30 4 30 20 0 18 -7 20 -80 20 -73 0 -80
-2 -80 -20z"/>
<path d="M4974 864 c3 -9 6 -54 6 -100 0 -77 2 -84 20 -84 19 0 20 7 20 100
l0 100 -26 0 c-20 0 -25 -4 -20 -16z"/>
<path d="M5092 873 c-18 -7 -42 -57 -42 -87 0 -92 108 -140 171 -77 39 39 40
96 3 140 -22 27 -32 31 -72 30 -26 0 -53 -3 -60 -6z m96 -45 c17 -17 15 -68
-5 -90 -46 -51 -107 18 -73 83 12 22 59 26 78 7z"/>
<path d="M5280 780 c0 -93 1 -100 20 -100 17 0 20 7 20 50 0 28 4 50 9 50 5 0
25 -22 45 -50 23 -31 43 -50 56 -50 19 0 20 7 20 100 l0 100 -25 0 c-23 0 -25
-3 -25 -50 0 -27 -4 -50 -10 -50 -5 0 -10 4 -10 8 0 19 -66 92 -82 92 -16 0
-18 -11 -18 -100z"/>
<path d="M5485 860 c-29 -32 -11 -71 43 -90 29 -10 42 -20 42 -33 0 -16 -7
-18 -47 -15 -52 3 -67 -12 -28 -30 61 -28 135 -2 135 47 0 23 -44 61 -70 61
-10 0 -23 6 -29 14 -17 21 9 37 49 30 28 -6 32 -4 28 12 -5 30 -97 33 -123 4z"/>
</g>
</svg>
